<?xml version="1.0" encoding="UTF-8"?>
<svg xmlns="http://www.w3.org/2000/svg" xmlns:xlink="http://www.w3.org/1999/xlink" width="24pt" height="24pt" viewBox="0 0 24 24" version="1.1">
<g id="surface1">
<path style=" stroke:none;fill-rule:nonzero;fill:rgb(0%,94.901961%,66.27451%);fill-opacity:1;" d="M 12 24 C 15.152344 24 19.878906 14.167969 19.878906 9.816406 C 19.878906 5.460938 16.351562 1.933594 12 1.933594 C 7.648438 1.933594 4.121094 5.460938 4.121094 9.816406 C 4.121094 14.167969 8.847656 24 12 24 Z M 12 5.085938 C 14.609375 5.085938 16.726562 7.203125 16.726562 9.816406 C 16.726562 12.425781 14.609375 14.542969 12 14.542969 C 9.390625 14.542969 7.273438 12.425781 7.273438 9.816406 C 7.273438 7.203125 9.390625 5.085938 12 5.085938 Z M 12 5.085938 "/>
<path style=" stroke:none;fill-rule:nonzero;fill:rgb(19.607843%,12.941176%,32.54902%);fill-opacity:1;" d="M 12 13.324219 C 14.804688 13.324219 17.085938 11.042969 17.085938 8.238281 C 17.085938 5.433594 14.804688 3.152344 12 3.152344 C 9.195312 3.152344 6.914062 5.433594 6.914062 8.238281 C 6.914062 11.042969 9.195312 13.324219 12 13.324219 Z M 12 3.867188 C 14.410156 3.867188 16.371094 5.828125 16.371094 8.238281 C 16.371094 10.648438 14.410156 12.609375 12 12.609375 C 9.589844 12.609375 7.628906 10.648438 7.628906 8.238281 C 7.628906 5.828125 9.589844 3.867188 12 3.867188 Z M 12 3.867188 "/>
<path style=" stroke:none;fill-rule:nonzero;fill:rgb(19.607843%,12.941176%,32.54902%);fill-opacity:1;" d="M 12 22.78125 C 15.453125 22.78125 20.238281 12.683594 20.238281 8.238281 C 20.238281 3.695312 16.542969 0 12 0 C 7.457031 0 3.761719 3.695312 3.761719 8.238281 C 3.761719 12.683594 8.546875 22.78125 12 22.78125 Z M 12 0.714844 C 16.148438 0.714844 19.523438 4.089844 19.523438 8.238281 C 19.523438 12.640625 14.800781 22.066406 12 22.066406 C 9.199219 22.066406 4.476562 12.640625 4.476562 8.238281 C 4.476562 4.089844 7.851562 0.714844 12 0.714844 Z M 12 0.714844 "/>
<path style=" stroke:none;fill-rule:nonzero;fill:rgb(19.607843%,12.941176%,32.54902%);fill-opacity:1;" d="M 12 20.488281 C 10.933594 20.488281 8.78125 16.921875 7.597656 14.390625 C 7.511719 14.210938 7.300781 14.132812 7.121094 14.21875 C 6.941406 14.300781 6.863281 14.515625 6.945312 14.695312 C 7.457031 15.78125 10.09375 21.207031 12 21.207031 C 12.199219 21.207031 12.359375 21.046875 12.359375 20.847656 C 12.359375 20.648438 12.199219 20.488281 12 20.488281 Z M 12 20.488281 "/>
<path style=" stroke:none;fill-rule:nonzero;fill:rgb(19.607843%,12.941176%,32.54902%);fill-opacity:1;" d="M 12 2.292969 C 15.277344 2.292969 17.945312 4.960938 17.945312 8.238281 C 17.945312 8.4375 18.105469 8.597656 18.304688 8.597656 C 18.503906 8.597656 18.664062 8.4375 18.664062 8.238281 C 18.664062 4.566406 15.671875 1.574219 12 1.574219 C 11.800781 1.574219 11.640625 1.738281 11.640625 1.933594 C 11.640625 2.132812 11.800781 2.292969 12 2.292969 Z M 12 2.292969 "/>
</g>
</svg>
